<svg width="262" height="119" viewBox="0 0 262 119" fill="none" xmlns="http://www.w3.org/2000/svg">
<path d="M31.0807 31.1514V23.9999H227.422V27.1237H232.877V31.1514H238.215V94.9999H31.0807L31.0943 88.4955H24.2149V31.1514H31.0807Z" fill="#2F48FF"/>
<path d="M28.6738 76.247H25.5868V48.464H28.6738V45.426H31.7118V42.437H41.3158V45.426H44.3048V48.464H47.3428V55.079H43.8148V49.003H40.7768V45.965H32.2018V49.003H29.2128V75.757H32.2018V78.746H40.7768V75.757H43.8148V64.144H34.7008V60.567H47.3428V76.247H44.3048V79.285H41.3158V82.372H31.7118V79.285H28.6738V76.247ZM53.1738 76.247H50.0868V60.567H53.1738V57.578H56.2118V54.54H65.8158V57.578H68.8048V60.567H71.8428V70.22H53.7128V75.757H56.7018V78.746H65.2768V75.757H68.3148V72.719H71.8428V76.247H68.8048V79.285H65.8158V82.372H56.2118V79.285H53.1738V76.247ZM68.3148 66.643V61.106H65.2768V58.068H56.7018V61.106H53.7128V66.643H68.3148ZM82.2308 58.068H76.1058V54.54H82.2308V45.426H85.7588V54.54H94.8238V58.068H85.7588V78.746H94.8238V82.372H85.2198V79.285H82.2308V58.068ZM132.652 45.426H136.229V52.041H132.652V45.426ZM132.652 54.54H136.229V82.372H132.652V54.54ZM155.731 58.068H149.606V54.54H155.731V45.426H159.259V54.54H168.324V58.068H159.259V78.746H168.324V82.372H158.72V79.285H155.731V58.068ZM181.652 42.437H185.229V73.209H181.652V42.437ZM181.652 75.757H185.229V82.372H181.652V75.757Z" fill="white"/>
<rect width="32" height="32" transform="translate(239.215 43.5) rotate(90)" fill="white"/>
<path d="M212.548 58.1666L212.548 60.8333L228.548 60.8333L228.548 63.5L231.215 63.5L231.215 60.8333L233.881 60.8333L233.881 58.1666L231.215 58.1666L231.215 55.5L228.548 55.5L228.548 58.1666L212.548 58.1666ZM225.881 52.8333L228.548 52.8333L228.548 55.5L225.881 55.5L225.881 52.8333ZM225.881 52.8333L223.215 52.8333L223.215 50.1666L225.881 50.1666L225.881 52.8333ZM225.881 66.1666L228.548 66.1666L228.548 63.5L225.881 63.5L225.881 66.1666ZM225.881 66.1666L223.215 66.1666L223.215 68.8333L225.881 68.8333L225.881 66.1666Z" fill="#2F48FF"/>
</svg>
