<svg width="293" height="119" viewBox="0 0 293 119" fill="none" xmlns="http://www.w3.org/2000/svg">
<path d="M30.4078 30.6963V23.5449H226.749V26.6686H232.204V30.6963H237.542V94.5449H30.4078L30.4214 88.0404H23.542V30.6963H30.4078Z" fill="#2F48FF"/>
<path d="M28.001 75.7919H24.914V48.0089H28.001V44.9709H31.039V41.9819H40.643V44.9709H43.632V48.0089H46.67V54.6239H43.142V48.5479H40.104V45.5099H31.529V48.5479H28.54V75.3019H31.529V78.2909H40.104V75.3019H43.142V63.6889H34.028V60.1119H46.67V75.7919H43.632V78.8299H40.643V81.9169H31.039V78.8299H28.001V75.7919ZM52.501 75.7919H49.414V60.1119H52.501V57.1229H55.539V54.0849H65.143V57.1229H68.132V60.1119H71.17V69.7649H53.04V75.3019H56.029V78.2909H64.604V75.3019H67.642V72.2639H71.17V75.7919H68.132V78.8299H65.143V81.9169H55.539V78.8299H52.501V75.7919ZM67.642 66.1879V60.6509H64.604V57.6129H56.029V60.6509H53.04V66.1879H67.642ZM81.558 57.6129H75.433V54.0849H81.558V44.9709H85.086V54.0849H94.151V57.6129H85.086V78.2909H94.151V81.9169H84.547V78.8299H81.558V57.6129ZM131.979 44.9709H135.556V51.5859H131.979V44.9709ZM131.979 54.0849H135.556V81.9169H131.979V54.0849ZM155.058 57.6129H148.933V54.0849H155.058V44.9709H158.586V54.0849H167.651V57.6129H158.586V78.2909H167.651V81.9169H158.047V78.8299H155.058V57.6129ZM180.979 41.9819H184.556V72.7539H180.979V41.9819ZM180.979 75.3019H184.556V81.9169H180.979V75.3019Z" fill="white"/>
<rect width="32" height="32" transform="translate(238.542 43.0449) rotate(90)" fill="white"/>
<path d="M211.875 57.7115L211.875 60.3782L227.875 60.3782L227.875 63.0449L230.542 63.0449L230.542 60.3782L233.208 60.3782L233.208 57.7115L230.542 57.7115L230.542 55.0449L227.875 55.0449L227.875 57.7115L211.875 57.7115ZM225.208 52.3782L227.875 52.3782L227.875 55.0449L225.208 55.0449L225.208 52.3782ZM225.208 52.3782L222.542 52.3782L222.542 49.7115L225.208 49.7115L225.208 52.3782ZM225.208 65.7115L227.875 65.7115L227.875 63.0449L225.208 63.0449L225.208 65.7115ZM225.208 65.7115L222.542 65.7115L222.542 68.3782L225.208 68.3782L225.208 65.7115Z" fill="#2F48FF"/>
<rect width="32" height="32" transform="translate(270.542 43.0449) rotate(90)" fill="white"/>
<path d="M243.875 57.7115L243.875 60.3782L259.875 60.3782L259.875 63.0449L262.542 63.0449L262.542 60.3782L265.208 60.3782L265.208 57.7115L262.542 57.7115L262.542 55.0449L259.875 55.0449L259.875 57.7115L243.875 57.7115ZM257.208 52.3782L259.875 52.3782L259.875 55.0449L257.208 55.0449L257.208 52.3782ZM257.208 52.3782L254.542 52.3782L254.542 49.7115L257.208 49.7115L257.208 52.3782ZM257.208 65.7115L259.875 65.7115L259.875 63.0449L257.208 63.0449L257.208 65.7115ZM257.208 65.7115L254.542 65.7115L254.542 68.3782L257.208 68.3782L257.208 65.7115Z" fill="#2F48FF"/>
</svg>
