<svg width="318" height="119" viewBox="0 0 318 119" fill="none" xmlns="http://www.w3.org/2000/svg">
<path d="M30.693 30.6963V23.5449H227.034V26.6686H232.489V30.6963H237.827V94.5449H30.693L30.7066 88.0404H23.8272V30.6963H30.693Z" fill="#2F48FF"/>
<path d="M28.2861 75.7919H25.1991V48.0089H28.2861V44.9709H31.3241V41.9819H40.9281V44.9709H43.9171V48.0089H46.9552V54.6239H43.4271V48.5479H40.3891V45.5099H31.8141V48.5479H28.8251V75.3019H31.8141V78.2909H40.3891V75.3019H43.4271V63.6889H34.3131V60.1119H46.9552V75.7919H43.9171V78.8299H40.9281V81.9169H31.3241V78.8299H28.2861V75.7919ZM52.7861 75.7919H49.6991V60.1119H52.7861V57.1229H55.8241V54.0849H65.4281V57.1229H68.4171V60.1119H71.4552V69.7649H53.3251V75.3019H56.3141V78.2909H64.8891V75.3019H67.9271V72.2639H71.4552V75.7919H68.4171V78.8299H65.4281V81.9169H55.8241V78.8299H52.7861V75.7919ZM67.9271 66.1879V60.6509H64.8891V57.6129H56.3141V60.6509H53.3251V66.1879H67.9271ZM81.8431 57.6129H75.7181V54.0849H81.8431V44.9709H85.3711V54.0849H94.4361V57.6129H85.3711V78.2909H94.4361V81.9169H84.8321V78.8299H81.8431V57.6129ZM132.264 44.9709H135.841V51.5859H132.264V44.9709ZM132.264 54.0849H135.841V81.9169H132.264V54.0849ZM155.343 57.6129H149.218V54.0849H155.343V44.9709H158.871V54.0849H167.936V57.6129H158.871V78.2909H167.936V81.9169H158.332V78.8299H155.343V57.6129ZM181.264 41.9819H184.841V72.7539H181.264V41.9819ZM181.264 75.3019H184.841V81.9169H181.264V75.3019Z" fill="white"/>
<rect width="32" height="32" transform="translate(238.827 43.0449) rotate(90)" fill="white"/>
<path d="M212.16 57.7115L212.16 60.3782L228.16 60.3782L228.16 63.0449L230.827 63.0449L230.827 60.3782L233.494 60.3782L233.494 57.7115L230.827 57.7115L230.827 55.0449L228.16 55.0449L228.16 57.7115L212.16 57.7115ZM225.494 52.3782L228.16 52.3782L228.16 55.0449L225.494 55.0449L225.494 52.3782ZM225.494 52.3782L222.827 52.3782L222.827 49.7115L225.494 49.7115L225.494 52.3782ZM225.494 65.7115L228.16 65.7115L228.16 63.0449L225.494 63.0449L225.494 65.7115ZM225.494 65.7115L222.827 65.7115L222.827 68.3782L225.494 68.3782L225.494 65.7115Z" fill="#2F48FF"/>
<rect width="32" height="32" transform="translate(270.827 43.0449) rotate(90)" fill="white"/>
<path d="M244.16 57.7115L244.16 60.3782L260.16 60.3782L260.16 63.0449L262.827 63.0449L262.827 60.3782L265.494 60.3782L265.494 57.7115L262.827 57.7115L262.827 55.0449L260.16 55.0449L260.16 57.7115L244.16 57.7115ZM257.494 52.3782L260.16 52.3782L260.16 55.0449L257.494 55.0449L257.494 52.3782ZM257.494 52.3782L254.827 52.3782L254.827 49.7115L257.494 49.7115L257.494 52.3782ZM257.494 65.7115L260.16 65.7115L260.16 63.0449L257.494 63.0449L257.494 65.7115ZM257.494 65.7115L254.827 65.7115L254.827 68.3782L257.494 68.3782L257.494 65.7115Z" fill="#2F48FF"/>
<rect width="32" height="32" transform="translate(302.827 43.0449) rotate(90)" fill="white"/>
<path d="M276.16 57.7115L276.16 60.3782L292.16 60.3782L292.16 63.0449L294.827 63.0449L294.827 60.3782L297.494 60.3782L297.494 57.7115L294.827 57.7115L294.827 55.0449L292.16 55.0449L292.16 57.7115L276.16 57.7115ZM289.494 52.3782L292.16 52.3782L292.16 55.0449L289.494 55.0449L289.494 52.3782ZM289.494 52.3782L286.827 52.3782L286.827 49.7115L289.494 49.7115L289.494 52.3782ZM289.494 65.7115L292.16 65.7115L292.16 63.0449L289.494 63.0449L289.494 65.7115ZM289.494 65.7115L286.827 65.7115L286.827 68.3782L289.494 68.3782L289.494 65.7115Z" fill="#2F48FF"/>
</svg>
