<svg width="317" height="119" viewBox="0 0 317 119" fill="none" xmlns="http://www.w3.org/2000/svg">
<path d="M29.9781 30.6964V23.5449H226.319V26.6687H231.774V30.6964H237.112V94.5449H29.9781L29.9917 88.0405H23.1123V30.6964H29.9781Z" fill="#2F48FF"/>
<path d="M24.3443 39.917H38.4683V42.601H41.1523V45.329H43.8803V56.681H41.1523V59.409H38.4683V62.137H27.6003V75.777H24.3443V39.917ZM37.9843 58.925V56.197H40.7123V45.813H37.9843V43.085H27.6003V58.925H37.9843ZM49.1163 70.277H46.3443V50.785H49.6003V69.837H52.2843V72.521H59.9843V69.837H62.7123V50.785H65.8803V75.777H62.7123V73.005H60.4683V75.777H51.8443V73.005H49.1163V70.277ZM71.0723 50.785H74.2403V53.513H76.4843V50.785H85.1083V53.953H76.9683V56.681H74.2403V75.777H71.0723V50.785ZM93.1163 70.277H90.3443V56.197H93.1163V53.513H95.8443V50.785H104.468V53.513H107.152V56.197H109.88V59.409H106.712V56.681H103.984V53.953H96.2843V56.681H93.6003V69.837H96.2843V72.521H103.984V69.837H106.712V67.109H109.88V70.277H107.152V73.005H104.468V75.777H95.8443V73.005H93.1163V70.277ZM112.344 42.601H115.6V53.513H117.844V50.785H126.468V53.513H129.152V56.197H131.88V75.777H128.712V56.681H125.984V53.953H118.284V56.681H115.6V75.777H112.344V42.601ZM134.344 64.381H137.116V61.653H147.984V53.953H137.6V59.409H134.344V53.513H137.116V50.785H148.468V53.513H151.152V72.521H153.88V75.777H150.712V73.005H145.74V75.777H137.116V73.005H134.344V64.381ZM145.256 72.521V69.837H147.984V64.865H137.6V72.521H145.256ZM156.344 67.109H159.6V72.521H172.712V64.865H159.116V62.137H156.344V53.513H159.116V50.785H173.152V53.513H175.88V59.409H172.712V53.953H159.6V61.653H173.152V64.381H175.88V73.005H173.152V75.777H159.116V73.005H156.344V67.109ZM181.116 70.277H178.344V56.197H181.116V53.513H183.844V50.785H192.468V53.513H195.152V56.197H197.88V64.865H181.6V69.837H184.284V72.521H191.984V69.837H194.712V67.109H197.88V70.277H195.152V73.005H192.468V75.777H183.844V73.005H181.116V70.277ZM194.712 61.653V56.681H191.984V53.953H184.284V56.681H181.6V61.653H194.712Z" fill="white"/>
<rect width="32" height="32" transform="translate(238.112 43.045) rotate(90)" fill="white"/>
<path d="M211.446 57.7116L211.446 60.3783L227.446 60.3783L227.446 63.045L230.113 63.045L230.113 60.3783L232.779 60.3783L232.779 57.7116L230.113 57.7116L230.113 55.045L227.446 55.045L227.446 57.7116L211.446 57.7116ZM224.779 52.3783L227.446 52.3783L227.446 55.045L224.779 55.045L224.779 52.3783ZM224.779 52.3783L222.113 52.3783L222.113 49.7116L224.779 49.7116L224.779 52.3783ZM224.779 65.7116L227.446 65.7116L227.446 63.045L224.779 63.045L224.779 65.7116ZM224.779 65.7116L222.113 65.7116L222.113 68.3783L224.779 68.3783L224.779 65.7116Z" fill="#2F48FF"/>
<rect width="32" height="32" transform="translate(270.112 43.045) rotate(90)" fill="white"/>
<path d="M243.446 57.7116L243.446 60.3783L259.446 60.3783L259.446 63.045L262.113 63.045L262.113 60.3783L264.779 60.3783L264.779 57.7116L262.113 57.7116L262.113 55.045L259.446 55.045L259.446 57.7116L243.446 57.7116ZM256.779 52.3783L259.446 52.3783L259.446 55.045L256.779 55.045L256.779 52.3783ZM256.779 52.3783L254.113 52.3783L254.113 49.7116L256.779 49.7116L256.779 52.3783ZM256.779 65.7116L259.446 65.7116L259.446 63.045L256.779 63.045L256.779 65.7116ZM256.779 65.7116L254.113 65.7116L254.113 68.3783L256.779 68.3783L256.779 65.7116Z" fill="#2F48FF"/>
<rect width="32" height="32" transform="translate(302.112 43.045) rotate(90)" fill="white"/>
<path d="M275.446 57.7116L275.446 60.3783L291.446 60.3783L291.446 63.045L294.113 63.045L294.113 60.3783L296.779 60.3783L296.779 57.7116L294.113 57.7116L294.113 55.045L291.446 55.045L291.446 57.7116L275.446 57.7116ZM288.779 52.3783L291.446 52.3783L291.446 55.045L288.779 55.045L288.779 52.3783ZM288.779 52.3783L286.113 52.3783L286.113 49.7116L288.779 49.7116L288.779 52.3783ZM288.779 65.7116L291.446 65.7116L291.446 63.045L288.779 63.045L288.779 65.7116ZM288.779 65.7116L286.113 65.7116L286.113 68.3783L288.779 68.3783L288.779 65.7116Z" fill="#2F48FF"/>
</svg>
